<mxfile host="app.diagrams.net" agent="Mozilla/5.0 (Windows NT 10.0; Win64; x64) AppleWebKit/537.36 (KHTML, like Gecko) Chrome/136.0.0.0 Safari/537.36 Edg/136.0.0.0" version="27.0.3">
  <diagram name="第 1 页" id="5ql-rkAp0StZzGZ4hSSv">
    <mxGraphModel dx="1500" dy="826" grid="1" gridSize="10" guides="1" tooltips="1" connect="1" arrows="1" fold="1" page="1" pageScale="1" pageWidth="827" pageHeight="1169" math="0" shadow="0">
      <root>
        <mxCell id="0" />
        <mxCell id="1" parent="0" />
        <mxCell id="PGz1YW0kTqPZM6cN3-vh-1" value="&lt;p class=&quot;MsoNormal&quot;&gt;&lt;font face=&quot;Helvetica&quot; style=&quot;font-size: 18px;&quot;&gt;&lt;font style=&quot;&quot;&gt;基于物联网&lt;/font&gt;技术的宿舍&lt;font style=&quot;&quot;&gt;环境监测与预警系统&lt;/font&gt;&lt;/font&gt;&lt;/p&gt;" style="rounded=0;whiteSpace=wrap;html=1;" parent="1" vertex="1">
          <mxGeometry x="243" y="240" width="370" height="50" as="geometry" />
        </mxCell>
        <mxCell id="PGz1YW0kTqPZM6cN3-vh-2" value="" style="strokeWidth=1;html=1;shape=mxgraph.flowchart.annotation_2;align=left;labelPosition=right;pointerEvents=1;direction=south;" parent="1" vertex="1">
          <mxGeometry x="103.75" y="290" width="642.5" height="60" as="geometry" />
        </mxCell>
        <mxCell id="PGz1YW0kTqPZM6cN3-vh-3" value="&lt;br&gt;&lt;div&gt;&lt;font style=&quot;font-size: 18px;&quot;&gt;数&lt;/font&gt;&lt;/div&gt;&lt;div&gt;&lt;font style=&quot;font-size: 18px;&quot;&gt;据&lt;/font&gt;&lt;/div&gt;&lt;div&gt;&lt;font style=&quot;font-size: 18px;&quot;&gt;可&lt;/font&gt;&lt;/div&gt;&lt;div&gt;&lt;font style=&quot;font-size: 18px;&quot;&gt;视&lt;/font&gt;&lt;/div&gt;&lt;div&gt;&lt;font style=&quot;font-size: 18px;&quot;&gt;化&lt;/font&gt;&lt;/div&gt;&lt;div&gt;&lt;font style=&quot;font-size: 18px;&quot;&gt;展&lt;/font&gt;&lt;/div&gt;&lt;div&gt;&lt;font style=&quot;font-size: 18px;&quot;&gt;示&lt;/font&gt;&lt;/div&gt;" style="rounded=0;whiteSpace=wrap;html=1;direction=west;" parent="1" vertex="1">
          <mxGeometry x="51" y="418" width="40" height="250" as="geometry" />
        </mxCell>
        <mxCell id="PGz1YW0kTqPZM6cN3-vh-4" value="&lt;font style=&quot;font-size: 18px;&quot;&gt;控制台&lt;/font&gt;" style="rounded=0;whiteSpace=wrap;html=1;" parent="1" vertex="1">
          <mxGeometry x="70" y="345" width="80" height="40" as="geometry" />
        </mxCell>
        <mxCell id="PGz1YW0kTqPZM6cN3-vh-5" value="" style="endArrow=none;html=1;rounded=0;" parent="1" edge="1">
          <mxGeometry width="50" height="50" relative="1" as="geometry">
            <mxPoint x="237" y="350" as="sourcePoint" />
            <mxPoint x="237" y="320" as="targetPoint" />
          </mxGeometry>
        </mxCell>
        <mxCell id="PGz1YW0kTqPZM6cN3-vh-6" value="" style="endArrow=none;html=1;rounded=0;" parent="1" edge="1">
          <mxGeometry width="50" height="50" relative="1" as="geometry">
            <mxPoint x="373" y="350" as="sourcePoint" />
            <mxPoint x="373" y="320" as="targetPoint" />
          </mxGeometry>
        </mxCell>
        <mxCell id="PGz1YW0kTqPZM6cN3-vh-8" value="" style="endArrow=none;html=1;rounded=0;" parent="1" edge="1">
          <mxGeometry width="50" height="50" relative="1" as="geometry">
            <mxPoint x="503.5" y="350" as="sourcePoint" />
            <mxPoint x="503.5" y="320" as="targetPoint" />
          </mxGeometry>
        </mxCell>
        <mxCell id="PGz1YW0kTqPZM6cN3-vh-9" value="" style="endArrow=none;html=1;rounded=0;" parent="1" edge="1">
          <mxGeometry width="50" height="50" relative="1" as="geometry">
            <mxPoint x="623" y="350" as="sourcePoint" />
            <mxPoint x="623" y="320" as="targetPoint" />
          </mxGeometry>
        </mxCell>
        <mxCell id="PGz1YW0kTqPZM6cN3-vh-11" value="&lt;font style=&quot;font-size: 18px;&quot;&gt;设备管理&lt;/font&gt;" style="rounded=0;whiteSpace=wrap;html=1;" parent="1" vertex="1">
          <mxGeometry x="194" y="350" width="90" height="30" as="geometry" />
        </mxCell>
        <mxCell id="PGz1YW0kTqPZM6cN3-vh-12" value="&lt;font style=&quot;font-size: 18px;&quot;&gt;系统管理&lt;/font&gt;" style="rounded=0;whiteSpace=wrap;html=1;" parent="1" vertex="1">
          <mxGeometry x="330" y="350" width="90" height="30" as="geometry" />
        </mxCell>
        <mxCell id="PGz1YW0kTqPZM6cN3-vh-13" value="&lt;font style=&quot;font-size: 18px;&quot;&gt;预警管理&lt;/font&gt;" style="rounded=0;whiteSpace=wrap;html=1;" parent="1" vertex="1">
          <mxGeometry x="465" y="350" width="90" height="30" as="geometry" />
        </mxCell>
        <mxCell id="PGz1YW0kTqPZM6cN3-vh-14" value="&lt;font style=&quot;font-size: 18px;&quot;&gt;数据管理&lt;/font&gt;" style="rounded=0;whiteSpace=wrap;html=1;" parent="1" vertex="1">
          <mxGeometry x="590" y="350" width="90" height="30" as="geometry" />
        </mxCell>
        <mxCell id="PGz1YW0kTqPZM6cN3-vh-15" value="&lt;font style=&quot;font-size: 18px;&quot;&gt;日志管理&lt;/font&gt;" style="rounded=0;whiteSpace=wrap;html=1;" parent="1" vertex="1">
          <mxGeometry x="710" y="350" width="90" height="30" as="geometry" />
        </mxCell>
        <mxCell id="PGz1YW0kTqPZM6cN3-vh-35" value="&lt;font style=&quot;font-size: 18px;&quot;&gt;设&lt;/font&gt;&lt;div&gt;&lt;font style=&quot;font-size: 18px;&quot;&gt;备&lt;/font&gt;&lt;/div&gt;&lt;div&gt;&lt;font style=&quot;font-size: 18px;&quot;&gt;状&lt;/font&gt;&lt;/div&gt;&lt;div&gt;&lt;font style=&quot;font-size: 18px;&quot;&gt;态&lt;/font&gt;&lt;/div&gt;&lt;div&gt;&lt;font style=&quot;font-size: 18px;&quot;&gt;展&lt;/font&gt;&lt;/div&gt;&lt;div&gt;&lt;font style=&quot;font-size: 18px;&quot;&gt;示&lt;/font&gt;&lt;/div&gt;" style="rounded=0;whiteSpace=wrap;html=1;direction=west;" parent="1" vertex="1">
          <mxGeometry x="120" y="418" width="40" height="250" as="geometry" />
        </mxCell>
        <mxCell id="PGz1YW0kTqPZM6cN3-vh-36" value="&lt;font style=&quot;font-size: 18px;&quot;&gt;在&lt;/font&gt;&lt;div&gt;&lt;font style=&quot;font-size: 18px;&quot;&gt;线&lt;/font&gt;&lt;/div&gt;&lt;div&gt;&lt;font style=&quot;font-size: 18px;&quot;&gt;设&lt;/font&gt;&lt;/div&gt;&lt;div&gt;&lt;font style=&quot;font-size: 18px;&quot;&gt;备&lt;/font&gt;&lt;/div&gt;&lt;div&gt;&lt;font style=&quot;font-size: 18px;&quot;&gt;管&lt;/font&gt;&lt;/div&gt;&lt;div&gt;&lt;font style=&quot;font-size: 18px;&quot;&gt;理&lt;/font&gt;&lt;/div&gt;" style="rounded=0;whiteSpace=wrap;html=1;direction=west;" parent="1" vertex="1">
          <mxGeometry x="183" y="415" width="40" height="250" as="geometry" />
        </mxCell>
        <mxCell id="PGz1YW0kTqPZM6cN3-vh-37" value="&lt;font style=&quot;font-size: 18px;&quot;&gt;离&lt;/font&gt;&lt;div&gt;&lt;font style=&quot;font-size: 18px;&quot;&gt;线&lt;/font&gt;&lt;/div&gt;&lt;div&gt;&lt;font style=&quot;font-size: 18px;&quot;&gt;设&lt;/font&gt;&lt;/div&gt;&lt;div&gt;&lt;font style=&quot;font-size: 18px;&quot;&gt;备&lt;/font&gt;&lt;/div&gt;&lt;div&gt;&lt;font style=&quot;font-size: 18px;&quot;&gt;管&lt;/font&gt;&lt;/div&gt;&lt;div&gt;&lt;font style=&quot;font-size: 18px;&quot;&gt;理&lt;/font&gt;&lt;/div&gt;" style="rounded=0;whiteSpace=wrap;html=1;direction=west;" parent="1" vertex="1">
          <mxGeometry x="253" y="415" width="40" height="250" as="geometry" />
        </mxCell>
        <mxCell id="PGz1YW0kTqPZM6cN3-vh-38" value="&lt;font style=&quot;font-size: 18px;&quot;&gt;系&lt;/font&gt;&lt;div&gt;&lt;font style=&quot;font-size: 18px;&quot;&gt;统&lt;/font&gt;&lt;/div&gt;&lt;div&gt;&lt;font style=&quot;font-size: 18px;&quot;&gt;菜&lt;/font&gt;&lt;div&gt;&lt;font style=&quot;font-size: 18px;&quot;&gt;单&lt;/font&gt;&lt;/div&gt;&lt;div&gt;&lt;font style=&quot;font-size: 18px;&quot;&gt;管&lt;/font&gt;&lt;/div&gt;&lt;div&gt;&lt;font style=&quot;font-size: 18px;&quot;&gt;理&lt;/font&gt;&lt;/div&gt;&lt;/div&gt;" style="rounded=0;whiteSpace=wrap;html=1;direction=west;" parent="1" vertex="1">
          <mxGeometry x="319" y="415" width="40" height="250" as="geometry" />
        </mxCell>
        <mxCell id="PGz1YW0kTqPZM6cN3-vh-39" value="&lt;font style=&quot;font-size: 18px;&quot;&gt;用&lt;/font&gt;&lt;div&gt;&lt;font style=&quot;font-size: 18px;&quot;&gt;户&lt;/font&gt;&lt;/div&gt;&lt;div&gt;&lt;font style=&quot;font-size: 18px;&quot;&gt;信&lt;/font&gt;&lt;/div&gt;&lt;div&gt;&lt;font style=&quot;font-size: 18px;&quot;&gt;息&lt;/font&gt;&lt;/div&gt;&lt;div&gt;&lt;font style=&quot;font-size: 18px;&quot;&gt;管&lt;/font&gt;&lt;/div&gt;&lt;div&gt;&lt;font style=&quot;font-size: 18px;&quot;&gt;理&lt;/font&gt;&lt;/div&gt;" style="rounded=0;whiteSpace=wrap;html=1;direction=west;" parent="1" vertex="1">
          <mxGeometry x="390" y="415" width="40" height="250" as="geometry" />
        </mxCell>
        <mxCell id="PGz1YW0kTqPZM6cN3-vh-40" value="&lt;font style=&quot;font-size: 18px;&quot;&gt;报&lt;/font&gt;&lt;div&gt;&lt;font style=&quot;font-size: 18px;&quot;&gt;警&lt;/font&gt;&lt;/div&gt;&lt;div&gt;&lt;font style=&quot;font-size: 18px;&quot;&gt;信&lt;/font&gt;&lt;/div&gt;&lt;div&gt;&lt;font style=&quot;font-size: 18px;&quot;&gt;息&lt;/font&gt;&lt;/div&gt;&lt;div&gt;&lt;font style=&quot;font-size: 18px;&quot;&gt;列&lt;/font&gt;&lt;/div&gt;&lt;div&gt;&lt;font style=&quot;font-size: 18px;&quot;&gt;表&lt;/font&gt;&lt;/div&gt;" style="rounded=0;whiteSpace=wrap;html=1;direction=west;" parent="1" vertex="1">
          <mxGeometry x="451" y="415" width="40" height="250" as="geometry" />
        </mxCell>
        <mxCell id="PGz1YW0kTqPZM6cN3-vh-42" value="&lt;font style=&quot;font-size: 18px;&quot;&gt;历&lt;/font&gt;&lt;div&gt;&lt;font style=&quot;font-size: 18px;&quot;&gt;史&lt;/font&gt;&lt;/div&gt;&lt;div&gt;&lt;font style=&quot;font-size: 18px;&quot;&gt;数&lt;/font&gt;&lt;/div&gt;&lt;div&gt;&lt;font style=&quot;font-size: 18px;&quot;&gt;据&lt;/font&gt;&lt;/div&gt;&lt;div&gt;&lt;font style=&quot;font-size: 18px;&quot;&gt;导&lt;/font&gt;&lt;/div&gt;&lt;div&gt;&lt;font style=&quot;font-size: 18px;&quot;&gt;出&lt;/font&gt;&lt;/div&gt;" style="rounded=0;whiteSpace=wrap;html=1;direction=west;" parent="1" vertex="1">
          <mxGeometry x="573" y="415" width="40" height="250" as="geometry" />
        </mxCell>
        <mxCell id="PGz1YW0kTqPZM6cN3-vh-41" value="&lt;font style=&quot;font-size: 18px;&quot;&gt;报&lt;/font&gt;&lt;div&gt;&lt;font style=&quot;font-size: 18px;&quot;&gt;警&lt;/font&gt;&lt;/div&gt;&lt;div&gt;&lt;font style=&quot;font-size: 18px;&quot;&gt;邮&lt;/font&gt;&lt;/div&gt;&lt;div&gt;&lt;font style=&quot;font-size: 18px;&quot;&gt;件&lt;/font&gt;&lt;/div&gt;&lt;div&gt;&lt;font style=&quot;font-size: 18px;&quot;&gt;发&lt;/font&gt;&lt;/div&gt;&lt;div&gt;&lt;font style=&quot;font-size: 18px;&quot;&gt;送&lt;/font&gt;&lt;/div&gt;" style="rounded=0;whiteSpace=wrap;html=1;direction=west;" parent="1" vertex="1">
          <mxGeometry x="518" y="415" width="40" height="250" as="geometry" />
        </mxCell>
        <mxCell id="PGz1YW0kTqPZM6cN3-vh-43" value="&lt;font style=&quot;font-size: 18px;&quot;&gt;历&lt;/font&gt;&lt;div&gt;&lt;font style=&quot;font-size: 18px;&quot;&gt;史&lt;/font&gt;&lt;/div&gt;&lt;div&gt;&lt;font style=&quot;font-size: 18px;&quot;&gt;数&lt;/font&gt;&lt;/div&gt;&lt;div&gt;&lt;font style=&quot;font-size: 18px;&quot;&gt;据&lt;/font&gt;&lt;/div&gt;&lt;div&gt;&lt;font style=&quot;font-size: 18px;&quot;&gt;查&lt;/font&gt;&lt;/div&gt;&lt;div&gt;&lt;font style=&quot;font-size: 18px;&quot;&gt;询&lt;/font&gt;&lt;/div&gt;" style="rounded=0;whiteSpace=wrap;html=1;direction=west;" parent="1" vertex="1">
          <mxGeometry x="639" y="415" width="40" height="250" as="geometry" />
        </mxCell>
        <mxCell id="PGz1YW0kTqPZM6cN3-vh-44" value="&lt;font style=&quot;font-size: 18px;&quot;&gt;用&lt;/font&gt;&lt;div&gt;&lt;font style=&quot;font-size: 18px;&quot;&gt;户&lt;/font&gt;&lt;/div&gt;&lt;div&gt;&lt;font style=&quot;font-size: 18px;&quot;&gt;登&lt;/font&gt;&lt;/div&gt;&lt;div&gt;&lt;font style=&quot;font-size: 18px;&quot;&gt;录&lt;/font&gt;&lt;/div&gt;&lt;div&gt;&lt;font style=&quot;font-size: 18px;&quot;&gt;日&lt;/font&gt;&lt;/div&gt;&lt;div&gt;&lt;font style=&quot;font-size: 18px;&quot;&gt;志&lt;/font&gt;&lt;/div&gt;" style="rounded=0;whiteSpace=wrap;html=1;direction=west;" parent="1" vertex="1">
          <mxGeometry x="700.25" y="415" width="40" height="250" as="geometry" />
        </mxCell>
        <mxCell id="PGz1YW0kTqPZM6cN3-vh-46" value="&lt;font style=&quot;font-size: 18px;&quot;&gt;用&lt;/font&gt;&lt;div&gt;&lt;font style=&quot;font-size: 18px;&quot;&gt;户&lt;/font&gt;&lt;/div&gt;&lt;div&gt;&lt;font style=&quot;font-size: 18px;&quot;&gt;操&lt;/font&gt;&lt;/div&gt;&lt;div&gt;&lt;font style=&quot;font-size: 18px;&quot;&gt;作&lt;/font&gt;&lt;/div&gt;&lt;div&gt;&lt;font style=&quot;font-size: 18px;&quot;&gt;日&lt;/font&gt;&lt;/div&gt;&lt;div&gt;&lt;font style=&quot;font-size: 18px;&quot;&gt;志&lt;/font&gt;&lt;/div&gt;" style="rounded=0;whiteSpace=wrap;html=1;direction=west;" parent="1" vertex="1">
          <mxGeometry x="766" y="415" width="40" height="250" as="geometry" />
        </mxCell>
        <mxCell id="PGz1YW0kTqPZM6cN3-vh-47" value="" style="strokeWidth=1;html=1;shape=mxgraph.flowchart.annotation_2;align=left;labelPosition=right;pointerEvents=1;direction=south;" parent="1" vertex="1">
          <mxGeometry x="69" y="384" width="72" height="35" as="geometry" />
        </mxCell>
        <mxCell id="PGz1YW0kTqPZM6cN3-vh-48" value="" style="strokeWidth=1;html=1;shape=mxgraph.flowchart.annotation_2;align=left;labelPosition=right;pointerEvents=1;direction=south;" parent="1" vertex="1">
          <mxGeometry x="201" y="380" width="72" height="35" as="geometry" />
        </mxCell>
        <mxCell id="PGz1YW0kTqPZM6cN3-vh-49" value="" style="strokeWidth=1;html=1;shape=mxgraph.flowchart.annotation_2;align=left;labelPosition=right;pointerEvents=1;direction=south;" parent="1" vertex="1">
          <mxGeometry x="337" y="380" width="72" height="35" as="geometry" />
        </mxCell>
        <mxCell id="PGz1YW0kTqPZM6cN3-vh-50" value="" style="strokeWidth=1;html=1;shape=mxgraph.flowchart.annotation_2;align=left;labelPosition=right;pointerEvents=1;direction=south;" parent="1" vertex="1">
          <mxGeometry x="470" y="380" width="72" height="35" as="geometry" />
        </mxCell>
        <mxCell id="PGz1YW0kTqPZM6cN3-vh-51" value="" style="strokeWidth=1;html=1;shape=mxgraph.flowchart.annotation_2;align=left;labelPosition=right;pointerEvents=1;direction=south;" parent="1" vertex="1">
          <mxGeometry x="590" y="380" width="72" height="35" as="geometry" />
        </mxCell>
        <mxCell id="PGz1YW0kTqPZM6cN3-vh-52" value="" style="strokeWidth=1;html=1;shape=mxgraph.flowchart.annotation_2;align=left;labelPosition=right;pointerEvents=1;direction=south;" parent="1" vertex="1">
          <mxGeometry x="719" y="380" width="72" height="35" as="geometry" />
        </mxCell>
      </root>
    </mxGraphModel>
  </diagram>
</mxfile>
